<svg xmlns="http://www.w3.org/2000/svg" width="18" height="18" viewBox="0 0 18 18" fill="none">
  <!-- 배경 사각형 (currentColor로 배경색 지정) -->
  <rect width="18" height="18" rx="3" fill="currentColor" />

  <!-- 체크 마크 (항상 흰색 고정) -->
  <path
    d="M13.95 6.795C14.05 6.7 14.12 6.59 14.17 6.47C14.22 6.35 14.25 6.22 14.26 6.08C14.26 5.95 14.23 5.82 14.18 5.7C14.13 5.57 14.06 5.46 13.96 5.37C13.87 5.27 13.76 5.2 13.63 5.15C13.51 5.1 13.38 5.07 13.25 5.08C13.11 5.08 12.98 5.1 12.86 5.16C12.74 5.21 12.63 5.29 12.54 5.38L7.59 10.33L5.47 8.21C5.37 8.12 5.26 8.04 5.14 7.99C5.02 7.94 4.89 7.92 4.76 7.92C4.49 7.92 4.24 8.02 4.05 8.21C3.86 8.4 3.76 8.65 3.76 8.92C3.76 9.18 3.86 9.44 4.05 9.62L6.81 12.38C6.91 12.48 7.03 12.57 7.16 12.62C7.3 12.68 7.44 12.7 7.59 12.7C7.73 12.7 7.87 12.68 8.01 12.62C8.14 12.57 8.26 12.48 8.36 12.38L13.95 6.795Z"
    fill="white"
  />
</svg>
