<svg xmlns="http://www.w3.org/2000/svg"  viewBox="0 0 15 15" fill="none">
  <g clip-path="url(#clip0_1120_13060)">
    <path d="M3.08036 15C2.7732 15 2.50017 14.8914 2.26127 14.6743C2.02237 14.4572 1.85742 14.1776 1.76641 13.8355L0.0258549 6.5329C-0.0310259 6.2829 0.00594662 6.05263 0.136773 5.84211C0.267599 5.63158 0.446773 5.52632 0.674297 5.52632H3.91651L6.91981 0.355263C6.9767 0.25 7.05633 0.164474 7.15871 0.0986842C7.2611 0.0328947 7.36917 0 7.48293 0C7.5967 0 7.70477 0.0328947 7.80716 0.0986842C7.90954 0.164474 7.98918 0.25 8.04606 0.355263L11.0494 5.52632H14.3257C14.5532 5.52632 14.7324 5.63158 14.8632 5.84211C14.9941 6.05263 15.031 6.2829 14.9741 6.5329L13.2336 13.8355C13.1426 14.1776 12.9776 14.4572 12.7387 14.6743C12.4998 14.8914 12.2268 15 11.9196 15H3.08036ZM3.06329 13.4211H11.9367L13.4384 7.10526H1.56164L3.06329 13.4211ZM5.57174 5.52632H9.4112L7.48293 2.21053L5.57174 5.52632Z" fill="#17171B"/>
  </g>


  <circle cx="7.5" cy="10.2632" r="1.36514" fill="currentColor"/>

  <defs>
    <clipPath id="clip0_1120_13060">
      <rect width="15" height="15" fill="white"/>
    </clipPath>
  </defs>
</svg>
