<svg  viewBox="0 0 15 15" fill="none" xmlns="http://www.w3.org/2000/svg">
  <g clip-path="url(#clip0_1120_13054)">
    <path d="M1.17224 14.9578L0.00976562 13.7952L8.52069 5.28321C8.52069 5.28321 8.23704 4.04447 8.41697 3.31092C8.59682 2.57737 8.99124 1.91994 9.60017 1.33863C10.3337 0.605082 11.1501 0.176023 12.0497 0.0514575C12.9492 -0.073108 13.6154 0.0810246 14.2501 0.715807C14.8847 1.35059 15.0389 2.01683 14.9144 2.91647C14.7898 3.81611 14.3608 4.6327 13.6273 5.36625C13.046 5.97524 12.3887 6.3697 11.6552 6.54962C10.9218 6.72956 10.2644 6.69495 9.68319 6.44582L8.64527 7.48387L14.9558 13.7952L13.7933 14.9578L7.50392 8.72971L1.17224 14.9578Z" fill="currentColor"/>
    <path d="M3.61219 7.84718L1.12103 5.356C0.373674 4.60865 0 3.71598 0 2.678C0 1.64002 0.373674 0.747349 1.12103 0L6.26942 5.18992L3.61219 7.84718Z" fill="#17171B"/>
    <path d="M15 13.7864L13.8091 15.0008L7.48242 8.69896L8.67338 7.48535L15 13.7864Z" fill="#17171B"/>
  </g>
  <defs>
    <clipPath id="clip0_1120_13054">
      <rect width="15" height="15" fill="white"/>
    </clipPath>
  </defs>
</svg>
