<svg width="current" height="current" viewBox="0 0 20 20" fill="current" xmlns="http://www.w3.org/2000/svg">
<path d="M6.7959 10.625C6.99354 10.625 7.15697 10.5365 7.2862 10.3594C7.41543 10.1823 7.48005 9.95833 7.48005 9.6875V8.4375H8.39225C8.58989 8.4375 8.75333 8.34896 8.88256 8.17188C9.01178 7.99479 9.0764 7.77083 9.0764 7.5C9.0764 7.22917 9.01178 7.00521 8.88256 6.82812C8.75333 6.65104 8.58989 6.5625 8.39225 6.5625H7.48005V5.3125C7.48005 5.04167 7.41543 4.81771 7.2862 4.64062C7.15697 4.46354 6.99354 4.375 6.7959 4.375C6.59825 4.375 6.43482 4.46354 6.30559 4.64062C6.17636 4.81771 6.11174 5.04167 6.11174 5.3125V6.5625H5.19954C5.0019 6.5625 4.83846 6.65104 4.70924 6.82812C4.58001 7.00521 4.51539 7.22917 4.51539 7.5C4.51539 7.77083 4.58001 7.99479 4.70924 8.17188C4.83846 8.34896 5.0019 8.4375 5.19954 8.4375H6.11174V9.6875C6.11174 9.95833 6.17636 10.1823 6.30559 10.3594C6.43482 10.5365 6.59825 10.625 6.7959 10.625Z" fill="current"/>
<path d="M13.1813 6.25C13.4398 6.25 13.6564 6.13021 13.8312 5.89062C14.0061 5.65104 14.0935 5.35417 14.0935 5C14.0935 4.64583 14.0061 4.34896 13.8312 4.10938C13.6564 3.86979 13.4398 3.75 13.1813 3.75C12.9228 3.75 12.7062 3.86979 12.5314 4.10938C12.3565 4.34896 12.2691 4.64583 12.2691 5C12.2691 5.35417 12.3565 5.65104 12.5314 5.89062C12.7062 6.13021 12.9228 6.25 13.1813 6.25Z" fill="current"/>
<path d="M15.0057 8.75C15.2642 8.75 15.4808 8.63021 15.6556 8.39062C15.8305 8.15104 15.9179 7.85417 15.9179 7.5C15.9179 7.14583 15.8305 6.84896 15.6556 6.60938C15.4808 6.36979 15.2642 6.25 15.0057 6.25C14.7472 6.25 14.5306 6.36979 14.3558 6.60938C14.1809 6.84896 14.0935 7.14583 14.0935 7.5C14.0935 7.85417 14.1809 8.15104 14.3558 8.39062C14.5306 8.63021 14.7472 8.75 15.0057 8.75Z" fill="current"/>
<path d="M13.1813 11.25C13.4398 11.25 13.6564 11.1302 13.8312 10.8906C14.0061 10.651 14.0935 10.3542 14.0935 10C14.0935 9.64583 14.0061 9.34896 13.8312 9.10938C13.6564 8.86979 13.4398 8.75 13.1813 8.75C12.9228 8.75 12.7062 8.86979 12.5314 9.10938C12.3565 9.34896 12.2691 9.64583 12.2691 10C12.2691 10.3542 12.3565 10.651 12.5314 10.8906C12.7062 11.1302 12.9228 11.25 13.1813 11.25Z" fill="#current"/>
<path fill-rule="evenodd" clip-rule="evenodd" d="M1.01482 18.6562C1.66097 19.5521 2.44014 20 3.35234 20C3.99088 20 4.58381 19.7708 5.13113 19.3125C5.67845 18.8542 6.08894 18.2292 6.3626 17.4375L7.00114 15.625C7.07716 15.4167 7.19118 15.2604 7.34322 15.1562C7.49525 15.0521 7.65488 15 7.82212 15H12.1551C12.3223 15 12.4819 15.0521 12.634 15.1562C12.786 15.2604 12.9 15.4167 12.9761 15.625L13.6146 17.4375C13.8883 18.2292 14.2987 18.8542 14.8461 19.3125C15.3934 19.7708 15.9863 20 16.6249 20C17.5523 20 18.3466 19.5573 19.008 18.6719C19.6693 17.7865 20 16.7083 20 15.4375C20 15.25 19.9886 15.0573 19.9658 14.8594C19.943 14.6615 19.9164 14.4688 19.886 14.2812L17.9704 3.78125C17.7575 2.65625 17.3242 1.74479 16.6705 1.04688C16.0167 0.348958 15.2718 0 14.4356 0H5.54162C4.70544 0 3.96047 0.348958 3.30673 1.04688C2.65298 1.74479 2.21969 2.65625 2.00684 3.78125L0.0912201 14.2812C0.0608134 14.4688 0.0380084 14.6562 0.022805 14.8438C0.00760167 15.0312 0 15.2188 0 15.4062C0.0304067 16.6771 0.368681 17.7604 1.01482 18.6562ZM4.20753 17.1875C3.97187 17.3958 3.70962 17.5 3.42075 17.5C2.97986 17.5 2.60357 17.3021 2.2919 16.9062C1.98024 16.5104 1.8244 16.0208 1.8244 15.4375C1.8244 15.1875 1.8396 15 1.87001 14.875L3.78563 4.40625C3.87685 3.84375 4.0859 3.38542 4.41277 3.03125C4.73964 2.67708 5.11593 2.5 5.54162 2.5H14.4356C14.8613 2.5 15.2338 2.67708 15.553 3.03125C15.8723 3.38542 16.0851 3.84375 16.1916 4.40625L18.1072 14.875C18.1376 15.2917 18.1528 15.4896 18.1528 15.4688C18.1376 16.0521 17.978 16.5365 17.6739 16.9219C17.3698 17.3073 17.0049 17.5 16.5792 17.5C16.2904 17.5 16.0281 17.3958 15.7925 17.1875C15.5568 16.9792 15.3782 16.6979 15.2566 16.3438L14.618 14.5625C14.3748 13.9375 14.0327 13.4375 13.5918 13.0625C13.1509 12.6875 12.672 12.5 12.1551 12.5H7.82212C7.30521 12.5 6.8263 12.6823 6.38541 13.0469C5.94451 13.4115 5.61003 13.9167 5.38198 14.5625L4.74344 16.3438C4.62182 16.6979 4.44318 16.9792 4.20753 17.1875Z" fill="#17171B"/>
<path d="M11.3569 8.75C11.6154 8.75 11.832 8.63021 12.0068 8.39062C12.1817 8.15104 12.2691 7.85417 12.2691 7.5C12.2691 7.14583 12.1817 6.84896 12.0068 6.60938C11.832 6.36979 11.6154 6.25 11.3569 6.25C11.0984 6.25 10.8818 6.36979 10.707 6.60938C10.5321 6.84896 10.4447 7.14583 10.4447 7.5C10.4447 7.85417 10.5321 8.15104 10.707 8.39062C10.8818 8.63021 11.0984 8.75 11.3569 8.75Z" fill="current"/>
</svg>