<svg width="40" height="40" viewBox="0 0 40 40" fill="none" xmlns="http://www.w3.org/2000/svg">
<rect x="0.5" y="0.5" width="39" height="39" stroke="#686871"/>
<path d="M9.30105 19.6897C8.71837 19.1094 8.25671 18.4186 7.94298 17.6576C7.62925 16.8966 7.46972 16.0806 7.47368 15.2571C7.47368 13.5917 8.13355 11.9944 9.30812 10.8168C10.4827 9.63916 12.0757 8.97757 13.7368 8.97757C16.0653 8.97757 18.0989 10.2483 19.1747 12.1395H20.8253C21.3722 11.1777 22.1635 10.3784 23.1187 9.82298C24.074 9.26756 25.1589 8.97585 26.2632 8.97757C27.9242 8.97757 29.5173 9.63916 30.6919 10.8168C31.8664 11.9944 32.5263 13.5917 32.5263 15.2571C32.5263 16.9858 31.7895 18.5816 30.6989 19.6897L20 30.4019L9.30105 19.6897ZM31.7305 20.7388C33.1305 19.3203 34 17.3995 34 15.2571C34 13.1998 33.1849 11.2268 31.7339 9.77202C30.283 8.31729 28.3151 7.50003 26.2632 7.50003C23.6842 7.50003 21.4 8.75594 20 10.7063C19.2854 9.71116 18.3445 8.9012 17.2552 8.3436C16.166 7.78599 14.9598 7.4968 13.7368 7.50003C11.6849 7.50003 9.71701 8.31729 8.26607 9.77202C6.81513 11.2268 6 13.1998 6 15.2571C6 17.3995 6.86947 19.3203 8.26947 20.7388L20 32.5L31.7305 20.7388Z" fill="#686871"/>
</svg>
