<svg width="25" height="24" viewBox="0 0 25 24" fill="none" xmlns="http://www.w3.org/2000/svg">
<path d="M3.425 11.2925C2.93076 10.8015 2.53917 10.2171 2.27306 9.5733C2.00695 8.92949 1.87164 8.23914 1.875 7.5425C1.875 6.13354 2.43471 4.78229 3.431 3.786C4.42728 2.78971 5.77854 2.23 7.1875 2.23C9.1625 2.23 10.8875 3.305 11.8 4.905H13.2C13.6639 4.09133 14.3351 3.41511 15.1454 2.94522C15.9556 2.47533 16.8759 2.22855 17.8125 2.23C19.2215 2.23 20.5727 2.78971 21.569 3.786C22.5653 4.78229 23.125 6.13354 23.125 7.5425C23.125 9.005 22.5 10.355 21.575 11.2925L12.5 20.355L3.425 11.2925ZM22.45 12.18C23.6375 10.98 24.375 9.355 24.375 7.5425C24.375 5.80202 23.6836 4.13282 22.4529 2.90211C21.2222 1.67141 19.553 0.980003 17.8125 0.980003C15.625 0.980003 13.6875 2.0425 12.5 3.6925C11.8939 2.85063 11.0958 2.1654 10.1718 1.69366C9.24794 1.22193 8.22487 0.977275 7.1875 0.980003C5.44702 0.980003 3.77782 1.67141 2.54711 2.90211C1.3164 4.13282 0.625 5.80202 0.625 7.5425C0.625 9.355 1.3625 10.98 2.55 12.18L12.5 22.13L22.45 12.18Z" fill="#17171B"/>
</svg>
