<svg xmlns="http://www.w3.org/2000/svg" width="current" height="current" viewBox="0 0 15 15" fill="none">
  <g clip-path="url(#clip0_1120_13065)">
    
    <!-- 쇼파: 항상 검정색 -->
    <path d="M2.25 15C1.6125 15 1.07812 14.7946 0.646875 14.3839C0.215625 13.9732 0 13.4643 0 12.8571V11.0714C0 10.6786 0.1375 10.3125 0.4125 9.97322C0.6875 9.63393 1.05 9.42857 1.5 9.35714V7.85714C1.5 7.46429 1.64688 7.12798 1.94063 6.84821C2.23438 6.56845 2.5875 6.42857 3 6.42857H9C9.4125 6.42857 9.76562 6.56845 10.0594 6.84821C10.3531 7.12798 10.5 7.46429 10.5 7.85714V9.35714C10.95 9.42857 11.3125 9.625 11.5875 9.94643C11.8625 10.2679 12 10.6429 12 11.0714V12.8571C12 13.4643 11.7844 13.9732 11.3531 14.3839C10.9219 14.7946 10.3875 15 9.75 15H2.25ZM3 7.85714V9.64286C3.225 9.82143 3.40625 10.0327 3.54375 10.2768C3.68125 10.5208 3.75 10.7857 3.75 11.0714V11.4286H8.25V11.0714C8.25 10.7857 8.31875 10.5208 8.45625 10.2768C8.59375 10.0327 8.775 9.82143 9 9.64286V7.85714H3ZM2.25 13.5714H9.75C9.975 13.5714 10.1562 13.497 10.2938 13.3482C10.4313 13.1994 10.5 13.0357 10.5 12.8571V11.0714C10.5 10.9643 10.4656 10.878 10.3969 10.8125C10.3281 10.747 10.2375 10.7143 10.125 10.7143C10.0125 10.7143 9.92188 10.747 9.85312 10.8125C9.78438 10.878 9.75 10.9643 9.75 11.0714V12.8571H2.25V11.0714C2.25 10.9643 2.21563 10.878 2.14687 10.8125C2.07812 10.747 1.9875 10.7143 1.875 10.7143C1.7625 10.7143 1.67188 10.747 1.60313 10.8125C1.53438 10.878 1.5 10.9643 1.5 11.0714V12.8571C1.5 13.0357 1.56875 13.1994 1.70625 13.3482C1.84375 13.497 2.025 13.5714 2.25 13.5714Z" fill="#17171B"/>

    <!-- 전등: currentColor (hover 시 색상 변경) -->
    <path d="M13.5 15V4.28571C13.5 3.89286 13.3531 3.55655 13.0594 3.27679C12.7656 2.99702 12.4125 2.85714 12 2.85714H11.25V3.78571C11.25 3.92857 11.2 4.04762 11.1 4.14286C11 4.2381 10.875 4.28571 10.725 4.28571H6.525C6.35 4.28571 6.20937 4.19643 6.10312 4.01786C5.99687 3.83929 5.9875 3.66667 6.075 3.5L7.5 0.571429C7.5875 0.392857 7.71562 0.252976 7.88437 0.151786C8.05312 0.0505952 8.25 0 8.475 0H10.2C10.5 0 10.75 0.107143 10.95 0.321429C11.15 0.535714 11.25 0.785714 11.25 1.07143V1.42857H12C12.825 1.42857 13.5313 1.70833 14.1188 2.26786C14.7063 2.82738 15 3.5 15 4.28571V15H13.5Z" fill="currentColor"/>
  </g>
  <defs>
    <clipPath id="clip0_1120_13065">
      <rect width="15" height="15" fill="white"/>
    </clipPath>
  </defs>
</svg>
