<svg width="currnet" height="currnet" viewBox="0 0 20 20" fill="currnet" xmlns="http://www.w3.org/2000/svg">
<path d="M7.49064 10.5263C7.90678 10.5263 8.26051 10.3728 8.55181 10.0658C8.84311 9.75877 8.98876 9.38597 8.98876 8.94737C8.98876 8.50877 8.84311 8.13597 8.55181 7.82895C8.26051 7.52193 7.90678 7.36842 7.49064 7.36842C7.07449 7.36842 6.72077 7.52193 6.42946 7.82895C6.13816 8.13597 5.99251 8.50877 5.99251 8.94737C5.99251 9.38597 6.13816 9.75877 6.42946 10.0658C6.72077 10.3728 7.07449 10.5263 7.49064 10.5263Z" fill="currnet"/>
<path d="M12.4844 10.5263C12.9005 10.5263 13.2543 10.3728 13.5456 10.0658C13.8369 9.75877 13.9825 9.38597 13.9825 8.94737C13.9825 8.50877 13.8369 8.13597 13.5456 7.82895C13.2543 7.52193 12.9005 7.36842 12.4844 7.36842C12.0682 7.36842 11.7145 7.52193 11.4232 7.82895C11.1319 8.13597 10.9863 8.50877 10.9863 8.94737C10.9863 9.38597 11.1319 9.75877 11.4232 10.0658C11.7145 10.3728 12.0682 10.5263 12.4844 10.5263Z" fill="currnet"/>
<path fill-rule="evenodd" clip-rule="evenodd" d="M8.41448 0.81579L5.61798 4.63158L1.37328 6.13158C0.940491 6.28947 0.603412 6.55702 0.362047 6.93421C0.120682 7.3114 0 7.7193 0 8.1579C0 8.36842 0.0291303 8.57895 0.0873908 8.78947C0.145651 9 0.241365 9.20175 0.374532 9.39474L3.09613 13.4737L2.99625 17.8158C2.97961 18.4298 3.17104 18.9474 3.57054 19.3684C3.97004 19.7895 4.43612 20 4.96879 20C5.05202 20 5.14357 19.9956 5.24345 19.9868C5.34332 19.9781 5.43487 19.9561 5.5181 19.9211L9.98752 18.6053L14.4569 19.9211C14.7898 19.9737 14.973 20 15.0062 20C15.5389 20 16.005 19.7895 16.4045 19.3684C16.804 18.9474 16.9954 18.4298 16.9788 17.8158L16.8789 13.5L19.6255 9.39474C19.7586 9.20175 19.8543 9 19.9126 8.78947C19.9709 8.57895 20 8.36842 20 8.1579C20 7.70175 19.8752 7.28509 19.6255 6.9079C19.3758 6.5307 19.0345 6.27193 18.6017 6.13158L14.3571 4.63158L11.5605 0.81579C11.3608 0.535088 11.1236 0.328947 10.8489 0.197368C10.5743 0.0657895 10.2871 0 9.98752 0C9.68789 0 9.40075 0.0657895 9.12609 0.197368C8.85144 0.328947 8.61423 0.535088 8.41448 0.81579ZM1.9975 8.13158L6.84145 6.44737L9.98752 2.10526L13.1336 6.44737L17.9775 8.18421L14.8814 12.8421L14.9813 17.8947L9.98752 16.4211L4.99376 17.8684L5.09363 12.8421L1.9975 8.13158Z" fill="#17171B"/>
<path d="M9.98752 14.7368C10.7865 14.7368 11.4981 14.4868 12.1223 13.9868C12.7466 13.4868 13.2002 12.8421 13.4831 12.0526H6.49189C6.77486 12.8421 7.22846 13.4868 7.85268 13.9868C8.4769 14.4868 9.18851 14.7368 9.98752 14.7368Z" fill="currnet"/>
</svg>