<svg width="18" height="21" viewBox="0 0 18 21" fill="none" xmlns="http://www.w3.org/2000/svg">
<path d="M9 0.5C11.3869 0.5 13.6761 1.44821 15.364 3.13604C17.0518 4.82387 18 7.11305 18 9.5C18 12.574 16.324 15.09 14.558 16.895C13.6757 17.7871 12.7129 18.5958 11.682 19.311L11.256 19.601L11.056 19.734L10.679 19.974L10.343 20.179L9.927 20.421C9.64463 20.5822 9.32513 20.6669 9 20.6669C8.67487 20.6669 8.35537 20.5822 8.073 20.421L7.657 20.179L7.137 19.859L6.945 19.734L6.535 19.461C5.42283 18.7085 4.3869 17.8491 3.442 16.895C1.676 15.089 0 12.574 0 9.5C0 7.11305 0.948211 4.82387 2.63604 3.13604C4.32387 1.44821 6.61305 0.5 9 0.5ZM9 6.5C8.60603 6.5 8.21593 6.5776 7.85195 6.72836C7.48797 6.87913 7.15726 7.1001 6.87868 7.37868C6.6001 7.65726 6.37913 7.98797 6.22836 8.35195C6.0776 8.71593 6 9.10603 6 9.5C6 9.89397 6.0776 10.2841 6.22836 10.6481C6.37913 11.012 6.6001 11.3427 6.87868 11.6213C7.15726 11.8999 7.48797 12.1209 7.85195 12.2716C8.21593 12.4224 8.60603 12.5 9 12.5C9.79565 12.5 10.5587 12.1839 11.1213 11.6213C11.6839 11.0587 12 10.2956 12 9.5C12 8.70435 11.6839 7.94129 11.1213 7.37868C10.5587 6.81607 9.79565 6.5 9 6.5Z" fill="#091FB0"/>
</svg>
