<svg  viewBox="0 0 20 20" fill="current" xmlns="http://www.w3.org/2000/svg">
<path fill-rule="evenodd" clip-rule="evenodd" d="M9.09091 5.77778V16.7222C8.42424 16.3333 7.75379 16.0417 7.07955 15.8472C6.4053 15.6528 5.71212 15.5556 5 15.5556C4.45455 15.5556 3.92045 15.6111 3.39773 15.7222C2.875 15.8333 2.34848 16 1.81818 16.2222V5.22222C2.31818 4.96296 2.83712 4.76852 3.375 4.63889C3.91288 4.50926 4.45455 4.44444 5 4.44444C5.71212 4.44444 6.41667 4.55556 7.11364 4.77778C7.81061 5 8.4697 5.33333 9.09091 5.77778ZM7.63636 18.3611C8.48485 18.75 9.27273 19.2963 10 20C10.7273 19.2963 11.5152 18.75 12.3636 18.3611C13.2121 17.9722 14.0909 17.7778 15 17.7778C15.6364 17.7778 16.2614 17.8796 16.875 18.0833C17.4886 18.287 18.0758 18.5741 18.6364 18.9444C18.9545 19.1482 19.2614 19.1389 19.5568 18.9167C19.8523 18.6944 20 18.3704 20 17.9444V4.55556C20 4.35185 19.9583 4.15741 19.875 3.97222C19.7917 3.78704 19.6667 3.64815 19.5 3.55556C19.2879 3.40741 19.072 3.27778 18.8523 3.16667C18.6326 3.05556 18.4091 2.9537 18.1818 2.86111V16.2222C17.6515 16 17.125 15.8333 16.6023 15.7222C16.0795 15.6111 15.5455 15.5556 15 15.5556C14.2879 15.5556 13.5947 15.6528 12.9205 15.8472C12.2462 16.0417 11.5758 16.3333 10.9091 16.7222V5.11111C10.9091 4.87037 10.8674 4.67593 10.7841 4.52778C10.7008 4.37963 10.5758 4.25 10.4091 4.13889C9.5 3.49074 8.65152 3.00926 7.86364 2.69444C7.07576 2.37963 6.12121 2.22222 5 2.22222C4.21212 2.22222 3.43939 2.33333 2.68182 2.55556C1.92424 2.77778 1.19697 3.11111 0.5 3.55556C0.333333 3.64815 0.208333 3.78704 0.125 3.97222C0.0416667 4.15741 0 4.35185 0 4.55556V17.9444C0 18.3704 0.147727 18.6944 0.443182 18.9167C0.738636 19.1389 1.04545 19.1482 1.36364 18.9444C1.92424 18.5741 2.51136 18.287 3.125 18.0833C3.73864 17.8796 4.36364 17.7778 5 17.7778C5.90909 17.7778 6.78788 17.9722 7.63636 18.3611Z" fill="#17171B"/>
<path d="M13.1818 13.3333V1.11111L15.9091 0V12.2222L13.1818 13.3333Z" fill="current"/>
</svg>