<svg  viewBox="0 0 20 20" fill="current" xmlns="http://www.w3.org/2000/svg">
<path fill-rule="evenodd" clip-rule="evenodd" d="M0 8.75L3.88889 20H8.33333L12.2222 8.75L7.77778 6.25V0H4.44444V6.25L0 8.75ZM7.19907 18.125H5.02315L2.10648 9.66146L4.83796 8.125H7.38889L10.1157 9.66146L7.19907 18.125Z" fill="#17171B"/>
<path d="M15.2778 20C15.0417 20 14.8438 19.9107 14.684 19.732C14.5243 19.5534 14.4444 19.332 14.4444 19.068C14.4444 18.8039 14.5243 18.5807 14.684 18.3984C14.8438 18.2161 15.0417 18.125 15.2778 18.125H17.7778V16.0938H15.2838C15.0483 16.0938 14.8495 16.0044 14.6875 15.8258C14.5255 15.6471 14.4444 15.4258 14.4444 15.1617C14.4444 14.8977 14.5243 14.6745 14.684 14.4922C14.8438 14.3099 15.0417 14.2188 15.2778 14.2188H17.7778V12.1875H15.2838C15.0483 12.1875 14.8495 12.0982 14.6875 11.9195C14.5255 11.7409 14.4444 11.5195 14.4444 11.2555C14.4444 10.9914 14.5243 10.7682 14.684 10.5859C14.8438 10.4036 15.0417 10.3125 15.2778 10.3125H17.7778V8.28125H15.2838C15.0483 8.28125 14.8495 8.19193 14.6875 8.01328C14.5255 7.83464 14.4444 7.61328 14.4444 7.34922C14.4444 7.08516 14.5243 6.86198 14.684 6.67969C14.8438 6.4974 15.0417 6.40625 15.2778 6.40625H17.7778V4.375H15.2838C15.0483 4.375 14.8495 4.28568 14.6875 4.10703C14.5255 3.92839 14.4444 3.70703 14.4444 3.44297C14.4444 3.17891 14.5243 2.95573 14.684 2.77344C14.8438 2.59115 15.0417 2.5 15.2778 2.5H18.3333C18.7917 2.5 19.184 2.68359 19.5104 3.05078C19.8368 3.41797 20 3.85938 20 4.375V18.125C20 18.6406 19.8368 19.082 19.5104 19.4492C19.184 19.8164 18.7917 20 18.3333 20H15.2778Z" fill="current"/>
</svg>
