<svg width="40" height="40" viewBox="0 0 40 40" fill="none" xmlns="http://www.w3.org/2000/svg">
<rect x="0.5" y="0.5" width="39" height="39" stroke="#686871"/>
<path d="M26.8748 11.2504C26.3776 11.2504 25.9006 11.4479 25.549 11.7996C25.1974 12.1512 24.9998 12.6281 24.9998 13.1254C24.9998 13.6227 25.1974 14.0996 25.549 14.4512C25.9006 14.8028 26.3776 15.0004 26.8748 15.0004C27.3721 15.0004 27.849 14.8028 28.2007 14.4512C28.5523 14.0996 28.7498 13.6227 28.7498 13.1254C28.7498 12.6281 28.5523 12.1512 28.2007 11.7996C27.849 11.4479 27.3721 11.2504 26.8748 11.2504ZM23.7498 13.1254C23.7498 12.3922 24.0075 11.6823 24.4779 11.1199C24.9484 10.5575 25.6016 10.1785 26.3233 10.0491C27.045 9.91966 27.7892 10.0481 28.4258 10.412C29.0623 10.7759 29.5506 11.352 29.8053 12.0396C30.06 12.7272 30.0648 13.4824 29.8188 14.1731C29.5729 14.8638 29.092 15.4461 28.4601 15.8181C27.8282 16.19 27.0857 16.3279 26.3624 16.2077C25.6391 16.0875 24.9811 15.7168 24.5036 15.1604L16.1061 19.0604C16.2991 19.6722 16.2991 20.3286 16.1061 20.9404L24.5036 24.8404C25.0084 24.2533 25.7132 23.8745 26.4813 23.7775C27.2495 23.6804 28.0263 23.8719 28.6613 24.315C29.2963 24.7581 29.7442 25.4211 29.9182 26.1755C30.0922 26.93 29.9799 27.7222 29.6031 28.3986C29.2263 29.075 28.6118 29.5874 27.8787 29.8366C27.1456 30.0857 26.3461 30.0539 25.6352 29.7472C24.9243 29.4404 24.3525 28.8807 24.0307 28.1765C23.709 27.4722 23.6601 26.6736 23.8936 25.9354L15.4961 22.0354C15.0804 22.5199 14.5263 22.8654 13.9083 23.0255C13.2904 23.1856 12.6382 23.1526 12.0395 22.931C11.4409 22.7093 10.9244 22.3097 10.5597 21.7858C10.195 21.2618 9.99951 20.6388 9.99951 20.0004C9.99951 19.362 10.195 18.739 10.5597 18.215C10.9244 17.6911 11.4409 17.2914 12.0395 17.0698C12.6382 16.8482 13.2904 16.8152 13.9083 16.9753C14.5263 17.1354 15.0804 17.4809 15.4961 17.9654L23.8936 14.0654C23.798 13.7612 23.7495 13.4442 23.7498 13.1254ZM13.1248 18.1254C12.6276 18.1254 12.1506 18.3229 11.799 18.6746C11.4474 19.0262 11.2498 19.5031 11.2498 20.0004C11.2498 20.4977 11.4474 20.9746 11.799 21.3262C12.1506 21.6778 12.6276 21.8754 13.1248 21.8754C13.6221 21.8754 14.099 21.6778 14.4507 21.3262C14.8023 20.9746 14.9998 20.4977 14.9998 20.0004C14.9998 19.5031 14.8023 19.0262 14.4507 18.6746C14.099 18.3229 13.6221 18.1254 13.1248 18.1254ZM26.8748 25.0004C26.3776 25.0004 25.9006 25.1979 25.549 25.5496C25.1974 25.9012 24.9998 26.3781 24.9998 26.8754C24.9998 27.3727 25.1974 27.8496 25.549 28.2012C25.9006 28.5528 26.3776 28.7504 26.8748 28.7504C27.3721 28.7504 27.849 28.5528 28.2007 28.2012C28.5523 27.8496 28.7498 27.3727 28.7498 26.8754C28.7498 26.3781 28.5523 25.9012 28.2007 25.5496C27.849 25.1979 27.3721 25.0004 26.8748 25.0004Z" fill="#686871"/>
</svg>
