<svg  viewBox="0 0 20 20" fill="current" xmlns="http://www.w3.org/2000/svg">
<path fill-rule="evenodd" clip-rule="evenodd" d="M16.2799 17.0858H10.6494L3.35987 17.9904L2.00251 7.01022L2.90742 6.88459V4.87449L1.75115 5.02525C1.19816 5.09225 0.754085 5.34352 0.418936 5.77904C0.0837872 6.21456 -0.0502723 6.70871 0.0167574 7.26149L1.34897 18.2417C1.416 18.7944 1.67155 19.2425 2.11563 19.5859C2.5597 19.9293 3.05823 20.0591 3.61123 19.9754L14.5706 18.6437C15.023 18.5767 15.3917 18.4092 15.6766 18.1412C15.9615 17.8731 16.1625 17.5214 16.2799 17.0858ZM5.50901 14.4853C5.90281 14.8789 6.3762 15.0757 6.9292 15.0757H17.9891C18.5421 15.0757 19.0155 14.8789 19.4093 14.4853C19.8031 14.0916 20 13.6184 20 13.0656V2.0101C20 1.45732 19.8031 0.984111 19.4093 0.590467C19.0155 0.196822 18.5421 0 17.9891 0H6.9292C6.3762 0 5.90281 0.196822 5.50901 0.590467C5.11521 0.984111 4.91831 1.45732 4.91831 2.0101V13.0656C4.91831 13.6184 5.11521 14.0916 5.50901 14.4853ZM17.9891 13.0656H6.9292V2.0101H17.9891V13.0656Z" fill="#17171B"/>
<path d="M10.1718 10.553L12.4592 9.17108L14.7465 10.553L14.1433 7.93989L16.1542 6.20618L13.5149 5.98005L12.4592 3.51767L11.4034 5.98005L8.76414 6.20618L10.775 7.93989L10.1718 10.553Z" fill="current"/>
</svg>