<svg  viewBox="0 0 20 20" fill="current" xmlns="http://www.w3.org/2000/svg">
<path d="M4 13.3333H6V6.66667H4V13.3333Z" fill="current"/>
<path d="M9 13.3333H11V6.66667H9V13.3333Z" fill="current"/>
<path fill-rule="evenodd" clip-rule="evenodd" d="M18 15.5556H2V4.44444H18V15.5556ZM3 17.7778V20H5V17.7778H9V20H11V17.7778H15V20H17V17.7778H18C18.55 17.7778 19.0208 17.5602 19.4125 17.125C19.8042 16.6898 20 16.1667 20 15.5556V4.44444C20 3.83333 19.8042 3.31019 19.4125 2.875C19.0208 2.43982 18.55 2.22222 18 2.22222H17V0H15V2.22222H11V0H9V2.22222H5V0H3V2.22222H2C1.45 2.22222 0.979167 2.43982 0.5875 2.875C0.195833 3.31019 0 3.83333 0 4.44444V15.5556C0 16.1667 0.195833 16.6898 0.5875 17.125C0.979167 17.5602 1.45 17.7778 2 17.7778H3Z" fill="#17171B"/>
<path d="M14 13.3333H16V6.66667H14V13.3333Z" fill="current"/>
</svg>