<svg  viewBox="0 0 21 20" fill="none" xmlns="http://www.w3.org/2000/svg">
<path d="M4.07328 16.4368C5.05029 15.7471 6.0704 15.2011 7.13362 14.7989C8.19684 14.3966 9.36063 14.1954 10.625 14.1954C11.8894 14.1954 13.0532 14.3966 14.1164 14.7989C15.1796 15.2011 16.1997 15.7471 17.1767 16.4368C17.9622 15.6513 18.5991 14.7126 19.0876 13.6207C19.5761 12.5287 19.8204 11.3218 19.8204 10C19.8204 7.45211 18.9248 5.28257 17.1336 3.49138C15.3424 1.70019 13.1729 0.804598 10.625 0.804598C8.07711 0.804598 5.90757 1.70019 4.11638 3.49138C2.32519 5.28257 1.4296 7.45211 1.4296 10C1.4296 11.3218 1.67385 12.5287 2.16236 13.6207C2.65086 14.7126 3.28784 15.6513 4.07328 16.4368ZM10.625 10.4023C9.70546 10.4023 8.9296 10.0862 8.29741 9.45402C7.66523 8.82184 7.34914 8.04598 7.34914 7.12644C7.34914 6.2069 7.66523 5.43103 8.29741 4.79885C8.9296 4.16667 9.70546 3.85057 10.625 3.85057C11.5445 3.85057 12.3204 4.16667 12.9526 4.79885C13.5848 5.43103 13.9009 6.2069 13.9009 7.12644C13.9009 8.04598 13.5848 8.82184 12.9526 9.45402C12.3204 10.0862 11.5445 10.4023 10.625 10.4023ZM10.625 20C9.22653 20 7.91906 19.7414 6.70259 19.2241C5.48611 18.7069 4.42768 17.9981 3.5273 17.0977C2.62692 16.1973 1.9181 15.1389 1.40086 13.9224C0.883621 12.7059 0.625 11.3985 0.625 10C0.625 8.60153 0.883621 7.29406 1.40086 6.07759C1.9181 4.86111 2.62692 3.80268 3.5273 2.9023C4.42768 2.00192 5.48611 1.2931 6.70259 0.775862C7.91906 0.258621 9.22653 0 10.625 0C12.0235 0 13.3309 0.258621 14.5474 0.775862C15.7639 1.2931 16.8223 2.00192 17.7227 2.9023C18.6231 3.80268 19.3319 4.86111 19.8491 6.07759C20.3664 7.29406 20.625 8.60153 20.625 10C20.625 11.3985 20.3664 12.7059 19.8491 13.9224C19.3319 15.1389 18.6231 16.1973 17.7227 17.0977C16.8223 17.9981 15.7639 18.7069 14.5474 19.2241C13.3309 19.7414 12.0235 20 10.625 20Z" fill="#B8B8BD"/>
</svg>
