<svg width="249" height="78" viewBox="0 0 249 78" fill="none" xmlns="http://www.w3.org/2000/svg">
<path d="M59.24 51.792V27.216H46.568V15.696H59.24V0.239994H73.64V51.792H59.24ZM0.2 47.472V35.952H12.68C11.24 28.848 6.536 24.336 0.2 24.336C6.92 24.336 11.72 19.344 12.872 11.568H0.2V1.008H47.336V11.568H42.344V35.952H47.336V47.472H0.2ZM13.64 35.952H27.944V11.568H13.448C14.6 19.344 19.496 24.336 26.216 24.336C19.784 24.336 15.08 28.848 13.64 35.952ZM14.984 51.888V65.808H77.576V77.328H0.584V51.888H14.984ZM157.294 39.504V51.024H87.8855V1.68H155.374V13.2H102.286V39.504H157.294ZM82.8935 76.368V64.848H162.286V76.368H82.8935ZM232.115 46.128V0.239994H246.515V46.128H232.115ZM173.075 12.528V1.008H220.211V28.944H187.475V34.032H222.899V45.552H173.075V17.424H205.811V12.528H173.075ZM173.459 77.424V48.336H246.707V65.904H248.819V77.424H173.459ZM187.763 65.904H232.403V58.896H187.763V65.904Z" fill="url(#paint0_linear_30_71)"/>
<defs>
<linearGradient id="paint0_linear_30_71" x1="-7" y1="38.6174" x2="246.888" y2="33.3645" gradientUnits="userSpaceOnUse">
<stop stop-color="#2D99F8"/>
<stop offset="1" stop-color="#091FB0"/>
</linearGradient>
</defs>
</svg>
